<?xml version="1.0" standalone="no"?>
<!DOCTYPE svg PUBLIC "-//W3C//DTD SVG 20010904//EN"
 "http://www.w3.org/TR/2001/REC-SVG-20010904/DTD/svg10.dtd">
<svg version="1.0" xmlns="http://www.w3.org/2000/svg"
 width="640.000000pt" height="1280.000000pt" viewBox="0 0 640.000000 1280.000000"
 preserveAspectRatio="xMidYMid meet">
<metadata>
Created by potrace 1.15, written by Peter Selinger 2001-2017
</metadata>
<g transform="translate(0.000000,1280.000000) scale(0.100000,-0.100000)"
fill="#000000" stroke="none">
<path d="M2875 12762 l-31 -3 4 -3674 5 -3673 -29 -4 c-23 -2 -33 -12 -51 -48
-31 -65 -20 -146 26 -194 l32 -33 -41 -118 c-22 -66 -42 -120 -44 -122 -7 -7
-164 71 -211 105 -55 39 -74 41 -176 18 l-58 -14 6 76 c3 43 0 124 -6 181
l-11 105 30 31 30 31 -32 65 c-45 90 -127 170 -198 192 -80 25 -168 24 -237
-2 -182 -69 -238 -194 -183 -405 30 -113 32 -117 76 -105 40 12 43 9 91 -70
26 -43 26 -45 16 -131 l-11 -86 -91 -128 c-51 -72 -97 -151 -107 -180 -9 -28
-41 -101 -71 -162 -58 -121 -90 -233 -128 -444 l-23 -135 21 -24 c53 -57 194
-136 422 -237 133 -58 140 -62 248 -144 l86 -65 1 -1662 0 -1663 35 0 35 0 0
1640 0 1639 30 16 c43 22 100 75 100 92 0 8 39 -21 86 -66 95 -91 164 -131
221 -131 50 0 165 30 288 74 106 38 117 40 512 62 l121 7 7 117 7 118 52 7
c49 6 52 5 76 -27 56 -74 149 -175 189 -205 27 -21 83 -46 154 -68 62 -20 122
-41 134 -48 12 -6 90 -75 174 -152 179 -164 228 -205 250 -205 25 0 52 36 148
201 l91 156 0 94 c0 52 -5 110 -10 130 -13 45 -51 65 -100 52 -30 -8 -34 -14
-56 -92 -35 -118 -37 -121 -90 -121 -25 0 -65 5 -89 11 -41 10 -63 32 -302
301 -142 159 -264 301 -272 316 -27 55 -62 98 -93 117 -29 17 -49 20 -153 18
-108 -1 -135 -6 -265 -43 -162 -46 -394 -104 -455 -113 -59 -9 -95 18 -159
115 -62 95 -204 374 -213 418 -4 23 -2 30 10 30 9 0 19 -5 22 -10 11 -17 24
-11 40 20 l15 30 90 -45 c49 -25 97 -45 105 -45 30 0 45 76 70 337 12 127 19
160 33 171 55 40 54 37 32 92 -11 28 -31 72 -44 98 -13 26 -34 79 -46 117 -16
48 -34 80 -57 102 l-33 32 -1 3108 c-1 1709 -5 3367 -8 3683 l-6 575 -30 -3z
m11 -7856 c-4 -55 -10 -116 -13 -133 l-5 -33 -34 44 -34 45 37 105 c45 129 59
121 49 -28z m-851 -891 c43 -72 99 -161 125 -200 25 -38 57 -87 69 -108 l24
-39 -52 26 c-46 24 -54 25 -78 13 -25 -14 -31 -10 -213 131 l-187 145 33 29
c18 16 47 54 64 86 18 31 34 58 35 60 1 1 14 -2 28 -7 23 -9 25 -7 38 37 l13
46 11 -45 c7 -24 47 -103 90 -174z"/>
</g>
</svg>
